<svg xmlns="http://www.w3.org/2000/svg" viewBox="0 0 128 128">
  <!-- Calendar body - white with gray border -->
  <rect x="12" y="24" width="104" height="92" rx="8" ry="8" fill="white" stroke="#374151" stroke-width="4"/>

  <!-- Calendar header bar - dark gray -->
  <rect x="12" y="24" width="104" height="24" rx="8" ry="8" fill="#374151"/>
  <rect x="12" y="36" width="104" height="12" fill="#374151"/>

  <!-- Calendar rings/hooks -->
  <rect x="36" y="12" width="8" height="24" rx="4" fill="#6B7280"/>
  <rect x="84" y="12" width="8" height="24" rx="4" fill="#6B7280"/>

  <!-- Calendar grid - simple squares -->
  <rect x="24" y="58" width="16" height="16" rx="2" fill="#E5E7EB"/>
  <rect x="48" y="58" width="16" height="16" rx="2" fill="#E5E7EB"/>
  <rect x="72" y="58" width="16" height="16" rx="2" fill="#E5E7EB"/>
  <rect x="96" y="58" width="16" height="16" rx="2" fill="#E5E7EB"/>

  <rect x="24" y="82" width="16" height="16" rx="2" fill="#E5E7EB"/>
  <rect x="48" y="82" width="16" height="16" rx="2" fill="#E5E7EB"/>
  <rect x="72" y="82" width="16" height="16" rx="2" fill="#374151"/>
  <rect x="96" y="82" width="16" height="16" rx="2" fill="#E5E7EB"/>
</svg>